<svg height="173" viewBox="0 0 228 173" width="228" xmlns="http://www.w3.org/2000/svg"><g fill="none" fill-rule="evenodd"><g fill="#4fbab7" transform="translate(21.765)"><path d="m128.1083 68.0681c3.797-.036 7.361-.068 11.024-.102.064.317.177.616.179.917.108 13.892.246 27.783.279083 41.675.008917 3.488-.717083 6.895-2.140083 10.116-1.722 3.898-4.473 6.561-8.896 6.877-4.397.314-7.941-1.404-10.464-5.054-1.958-2.835-2.933-6.031-3.2-9.438-.256-3.304-.293-6.604.64-9.9 3.127-.029 6.205-.057 9.475-.087.036.663.084 1.293.1 1.921.093 3.473.104 6.948.309 10.413.063 1.091-.007 2.879 1.446 2.88 1.479.001 1.316-1.746 1.403-2.87.156-1.997.229-4.008.215-6.013-.1-13.079-.23-26.155-.35-39.233-.007-.644-.013-1.287-.02-2.102m28.1221 59.0449c-3.695.034-7.261.067-10.96.1-.179-19.386-.356-38.745-.535-58.189 3.649-.032 7.252-.066 10.959-.101.178 19.381.356 38.706.536 58.19m-148.5971-40.197c1.636 14.146 3.273 28.293 4.922 42.548-3.936.036-7.7.071-11.543.106-.178-19.383-.356-38.679-.537-58.236 2.31-.022 4.617-.042 6.926-.063 4.207-.039 4.231-.045 5.053 3.972 2.542 12.42 5.063 24.844 7.594 37.267.052.266.018.59.162.787.219.3.557.511.846.761.135-.347.415-.709.382-1.039-.282-2.859-.611-5.714-.945-8.567-1.228-10.557-2.466-21.111-3.692-31.666-.055-.469-.015-.949-.02-1.513 3.783-.035 7.504-.069 11.362-.105.178 19.353.357 38.685.534 58.13-3.632.033-7.295.067-11.103.102-.76-3.667-1.537-7.369-2.294-11.076-2.065-10.14-4.114-20.282-6.205-30.417-.102-.497-.548-.924-.833-1.382-.203.13-.406.259-.609.391m-7.2837-82.1937c4.626-.042 9.181-.371 13.69-.047 4.904.354 8.325 3.316 10.628 7.582 2.053 3.81 3.1 7.936 3.601 12.19 1.032 8.799 1.246 17.602-.96 26.264-.67 2.625-1.75 5.229-3.101 7.578-2.552 4.436-6.652 6.523-11.749 6.613-3.81.066-7.619.077-11.554.112-.185-20.119-.368-40.13-.555-60.292m11.995 50.482c.159.163.319.325.477.489.712-.648 1.711-1.17 2.072-1.974.562-1.251.834-2.68.978-4.06.957-9.249.718-18.507.012-27.755-.152-1.997-.632-3.986-1.138-5.933-.331-1.27-1.189-2.148-2.779-1.881.126 13.73.251 27.422.378 41.114m51.586 15.6656c4.455-.042 8.852-.358 13.204-.047 4.735.339 8.045 3.194 10.269 7.313 1.987 3.678 2.996 7.661 3.479 11.771 1 8.496 1.207 16.996-.922 25.36-.645 2.535-1.684 5.051-2.989 7.321-2.463 4.284-6.417 6.306-11.34 6.393-3.68.067-7.358.075-11.166.109-.178-19.419-.356-38.742-.535-58.22m11.584 48.806c.174.14.349.28.524.419.673-.647 1.6-1.179 1.959-1.969.525-1.157.779-2.484.911-3.762.931-8.985.707-17.981.01-26.965-.148-1.926-.623-3.846-1.118-5.722-.324-1.221-1.161-2.03-2.651-1.737.122 13.294.244 26.516.365 39.736m37.8248-119.3506c3.97-.038 7.718-.072 11.68-.108.007.672.012 1.274.018 1.875.118 12.809.245 25.616.347 38.425.036 4.629-.303 9.209-2.189 13.528-2.937 6.723-9.583 9.603-16.23 7.055-2.879-1.102-4.853-3.172-6.279-5.821-1.761-3.271-2.694-6.826-2.756-10.496-.244-14.548-.35-29.099-.505057-43.648-.001943-.163.049057-.326.094057-.612 3.725-.036 7.461-.07 11.48-.107.006.591.013 1.234.017 1.877.129 13.933.233 27.863.413 41.795.03 2.234.301 4.48.682 6.683.11.634.994 1.134 1.522 1.697.536-.551 1.423-1.035 1.544-1.664.351-1.862.554-3.782.541-5.677-.082-14.214-.231-28.426-.36-42.638-.005-.666-.011-1.332-.019-2.164m-35.9834 40.4204c.073 7.833.143 15.574.216 23.44-3.883.036-7.661.07-11.525.106-.183-20.066-.368-40.084-.556-60.504 5.637.189 11.237-.112 16.68.678 7.164 1.04 11.166 6.841 10.925 14.726-.062 1.996-.304 4.072-.944 5.948-2.057 6.012-6.982 7.929-12.759 8.442-.446.041-.942-.074-1.333.083-.36.145-.612.561-1.172 1.113 2.684.165 4.876.158 7.022.465 5.5.784 8.727 4.347 8.939 9.894.163 4.321.135 8.649.178 12.973.021 2.058.094 4.078 2.136 5.325.088.054.055.301.096.58-3.61.032-7.175.229-10.72.033-2.011-.108-2.959-1.623-3.028-4.206-.125-4.66-.121-9.323-.197-13.985-.014-.836-.066-1.689-.246-2.502-.425-1.924-1.425-2.637-3.712-2.609m-.073-12.809c1.578.159 2.674-.385 3.172-1.645 1.474-3.743 1.523-7.574.094-11.323-.513-1.35-1.675-2.213-3.403-1.845.046 4.923.09 9.79.137 14.813m-14.9721 33.4855c-4.088.038-7.999.073-12.06.11-.242-3.366-.481-6.711-.729-10.166-2.017.018-3.955.036-6.091.057-.18 3.35-.363 6.695-.549 10.156-4.001.036-7.954.072-12.055.111 1.968-20.091 3.93-40.127 5.898-60.247 6.207-.059 12.307-.114 18.581-.173 2.332 20.032 4.661 40.034 7.005 60.152m-13.689-20.586c.049-.332.102-.499.092-.66-.613-8.84-1.22-17.68-1.874-26.518-.032-.416-.488-.799-.745-1.198-.225.429-.624.849-.65 1.29-.379 6.495-.714 12.991-1.05 19.488-.13 2.508-.232 5.018-.351 7.641 1.603-.016 3.035-.029 4.578-.043m.6946 75.2278c-2.051.018-3.878.035-5.872.054-.178 3.298-.351 6.529-.531 9.851-3.892.038-7.711.072-11.64.109 1.897-19.397 3.788-38.706 5.692-58.15 5.952-.054 11.883-.109 17.953-.165 2.249 19.32 4.497 38.635 6.758 58.054-3.931.035-7.658.069-11.629.106-.241-3.235-.482-6.492-.731-9.859m-.839-10.148c.028-.318.076-.532.061-.74-.586-8.482-1.169-16.966-1.797-25.445-.032-.416-.442-.804-.676-1.206-.232.399-.645.785-.668 1.196-.355 5.839-.666 11.679-.965 17.52-.148 2.893-.255 5.785-.381 8.717 1.632-.017 3.014-.029 4.426-.042"/><path d="m104.5935 97.9925c2.497-.023 4.866-.044 7.306-.068.029 3.357.059 6.541.089 9.936-2.434.022-4.84.045-7.333.067.046 5.064.091 9.919.137 14.948 3.364-.03 6.697-.061 10.179-.092.031 3.428.061 6.686.092 10.026-7.105.066-14.184.131-21.366.197-.179-19.389-.357-38.72-.536-58.151 7.13-.065 14.209-.13 21.399-.197.03 3.244.061 6.467.092 9.863-3.372.031-6.717.062-10.182.094.041 4.477.08 8.781.123 13.377m25.1588-59.385c3.172-.029 6.353-.058 9.768-.09.013 1.474-.012 2.862.048 4.247.139 3.249.254 6.505.545 9.742.059.652.86 1.239 1.317 1.858.413-.607 1.1-1.177 1.187-1.826.268-1.997.424-4.025.41-6.04-.088-14.05-.236-28.097-.361-42.146-.007-.66-.013-1.319-.02-2.065 3.906-.037 7.642-.072 11.505-.107.04.588.105 1.129.109 1.671.124 12.867.233 25.738.362 38.606.043 4.346-.207 8.655-1.706 12.786-1.37 3.777-3.421 7.036-7.58 8.181-4.555 1.253-8.554.108-11.856-3.288-5.307-5.458-5.467-16.644-3.728-21.529"/><path d="m92.967 66.4128c2.563-.023 4.833-.096 7.097-.016.413.014.981.574 1.174 1.014.8 1.814 1.482 3.677 2.399 6.016.818-2.191 1.534-3.902 2.087-5.664.342-1.09.848-1.573 2.053-1.519 1.992.087 3.993-.009 6.306-.03-.345.841-.569 1.463-.847 2.059-1.119 2.404-2.306 4.776-3.354 7.207-.415.964-.979 1.242-1.971 1.233-2.87-.03-5.742.07-8.612.025-.539-.006-1.347-.305-1.562-.714-1.603-3.058-3.086-6.178-4.77-9.611"/></g><path d="m220.58 100.424-6.052 4.434 5.078-6.857-13.819 5.8 4.906-2.609-57.789 19.269 10.905 3.553 9.921 20.596 16.234-7.779 6.373 3.502z" fill="#fffffe"/><path d="m196.148 144.1992c.231.126.482.187.729.187.515 0 1.013-.261 1.298-.73l29.072-47.858c.33-.542.286-1.235-.11-1.733-.399-.497-1.066-.697-1.667-.493l-77.893 25.973c-.62.207-1.039.79-1.038 1.444.003.655.426 1.236 1.048 1.438l17.622 5.742 6.17 18.282.005-.001.065.137c-.606.316-1.198.631-1.823.945-4.426 2.269-9.315 4.529-14.568 6.707-1.316.533-2.651 1.074-4.001 1.622-1.371.5-2.756 1.003-4.157 1.513-2.786 1.062-5.707 1.927-8.637 2.915-5.937 1.736-12.118 3.369-18.499 4.52-3.169.688-6.415 1.063-9.657 1.545-1.617.274-3.262.329-4.895.503-1.637.132-3.272.328-4.912.41-6.562.338-13.152.471-19.606-.067-1.614-.116-3.222-.232-4.822-.348-1.591-.202-3.175-.401-4.749-.599-1.573-.217-3.148-.36-4.69-.63-1.541-.294-3.069-.586-4.586-.875-1.511-.308-3.03-.531-4.501-.901-1.472-.371-2.929-.739-4.371-1.102-1.445-.362-2.873-.72-4.285-1.074-1.387-.439-2.757-.874-4.11-1.303-2.704-.861-5.356-1.646-7.83-2.664-2.497-.96-4.931-1.843-7.235-2.774-2.267-1.024-4.439-2.005-6.504-2.939-1.036-.463-2.046-.917-3.027-1.356-.951-.495-1.875-.976-2.771-1.443-3.557-1.917-6.793-3.372-9.266-4.949-5.058-2.939-7.947-4.618-7.947-4.618s2.712 1.954 7.456 5.374c2.326 1.773 5.434 3.533 8.91 5.704.875.537 1.777 1.091 2.706 1.659.959.514 1.944 1.042 2.956 1.584 2.038 1.065 4.179 2.186 6.415 3.356 4.606 2.049 9.547 4.457 15.06 6.276 1.366.492 2.748.991 4.15 1.498 1.428.418 2.876.844 4.337 1.272 1.468.421 2.95.848 4.446 1.277 1.5.416 3.053.684 4.598 1.037 1.551.334 3.115.672 4.69 1.01 1.581.316 3.194.506 4.807.765 1.618.243 3.244.486 4.878.732 1.647.137 3.302.273 4.964.409 6.647.605 13.441.527 20.21.23 1.693-.089 3.375-.309 5.06-.456 1.682-.193 3.376-.267 5.038-.562 3.333-.52 6.67-.935 9.923-1.667 1.631-.341 3.266-.634 4.871-1.012 1.597-.416 3.187-.83 4.765-1.242 1.586-.384 3.137-.859 4.672-1.342 1.535-.477 3.061-.951 4.573-1.422 5.986-2.063 11.697-4.271 16.935-6.754 2.651-1.166 5.143-2.486 7.581-3.693 2.38-1.324 4.719-2.521 6.877-3.832 4.215-2.391 7.91-4.866 11.188-7.1l5.772-3.094zm-11.482-6.31-9.593 5.144 2.191-9.21zm-31.763-16.922 57.79-19.269-44.431 23.622zm22.449 9.342c-.295.216-.491.528-.572.874l-.007-.002-2.209 9.29-4.31-12.774 38.847-20.651zm20.984 10.53-17.269-9.489 41.513-30.42z" fill="#1c1d47"/></g></svg>